# xmcd
#
# Track frame offsets:
#  150
#  19109
#  35362
#  51074
#  66007
#  83894
#  100658
#  115763
#  130776
#  149192
#  162916
#
# Disc length: 2395 seconds
#
# Revision: 0
# Processed by: cddbd v1.5.1PL2 Copyright (c) Steve Scherf et al.
# Submitted via: Collectorz.com_Music_Collector 6.9
#
DISCID=8f09590b
DTITLE=Josh Turner - Long Black Train
DYEAR=2003
DGENRE=Country
TTITLE0=Long Black Train
TTITLE1=In My Dreams
TTITLE2=What It Ain't
TTITLE3=I Had One One Time
TTITLE4=Jacksonville
TTITLE5=Backwoods Boy
TTITLE6=Unburn All Our Bridges
TTITLE7=You Don't Mess Around With Jim
TTITLE8=She'll Go On You
TTITLE9=Good Woman Bad
TTITLE10=The Difference Between A Woman And A Man
EXTD=
EXTT0=
EXTT1=
EXTT2=
EXTT3=
EXTT4=
EXTT5=
EXTT6=
EXTT7=
EXTT8=
EXTT9=
EXTT10=
PLAYORDER=
